<svg width="36" height="36" viewBox="0 0 36 36" fill="none" xmlns="http://www.w3.org/2000/svg">
<mask id="path-1-inside-1_1_12" fill="white">
<path d="M0 18C0 8.05888 8.05888 0 18 0C27.9411 0 36 8.05888 36 18C36 27.9411 27.9411 36 18 36C8.05888 36 0 27.9411 0 18Z"/>
</mask>
<path d="M0 18C0 8.05888 8.05888 0 18 0C27.9411 0 36 8.05888 36 18C36 27.9411 27.9411 36 18 36C8.05888 36 0 27.9411 0 18Z" fill="white"/>
<path d="M18 36V35C8.61116 35 1 27.3888 1 18H0H-1C-1 28.4934 7.50659 37 18 37V36ZM36 18H35C35 27.3888 27.3888 35 18 35V36V37C28.4934 37 37 28.4934 37 18H36ZM18 0V1C27.3888 1 35 8.61116 35 18H36H37C37 7.50659 28.4934 -1 18 -1V0ZM18 0V-1C7.50659 -1 -1 7.50659 -1 18H0H1C1 8.61116 8.61116 1 18 1V0Z" fill="black" fill-opacity="0.1" mask="url(#path-1-inside-1_1_12)"/>
<path d="M23.9899 18.324C23.9275 19.4814 23.5311 20.596 22.8487 21.5329C22.1662 22.4699 21.2271 23.1891 20.1446 23.6037C19.0622 24.0183 17.8828 24.1104 16.7491 23.869C15.6154 23.6276 14.5759 23.063 13.7562 22.2434C12.9366 21.4239 12.3719 20.3844 12.1303 19.2507C11.8888 18.1171 11.9809 16.9377 12.3953 15.8552C12.8098 14.7727 13.5289 13.8335 14.4658 13.151C15.4027 12.4685 16.5172 12.0719 17.6746 12.0093C17.9446 11.9947 18.0859 12.316 17.9426 12.5447C17.4632 13.3117 17.2579 14.2186 17.3603 15.1173C17.4626 16.016 17.8666 16.8535 18.5062 17.4931C19.1457 18.1327 19.9832 18.5367 20.882 18.639C21.7807 18.7414 22.6876 18.5361 23.4546 18.0567C23.6839 17.9133 24.0046 18.054 23.9899 18.324Z" stroke="#0A0A0A" stroke-width="1.33333" stroke-linecap="round" stroke-linejoin="round"/>
</svg>
