<svg width="48" height="48" viewBox="0 0 48 48" fill="none" xmlns="http://www.w3.org/2000/svg">
<path d="M0 14C0 6.26801 6.26801 0 14 0H34C41.732 0 48 6.26801 48 14V34C48 41.732 41.732 48 34 48H14C6.26801 48 0 41.732 0 34V14Z" fill="#F3E8FF"/>
<path d="M19 24L22 21L25 24L29 20M20 33L24 29L28 33M15 16H33M16 16H32V28C32 28.2652 31.8946 28.5196 31.7071 28.7071C31.5196 28.8946 31.2652 29 31 29H17C16.7348 29 16.4804 28.8946 16.2929 28.7071C16.1054 28.5196 16 28.2652 16 28V16Z" stroke="#9810FA" stroke-width="2" stroke-linecap="round" stroke-linejoin="round"/>
</svg>
