<svg width="48" height="48" viewBox="0 0 48 48" fill="none" xmlns="http://www.w3.org/2000/svg">
<path d="M0 14C0 6.26801 6.26801 0 14 0H34C41.732 0 48 6.26801 48 14V34C48 41.732 41.732 48 34 48H14C6.26801 48 0 41.732 0 34V14Z" fill="#DCFCE7"/>
<path d="M16 17C16 16.7348 16.1054 16.4804 16.2929 16.2929C16.4804 16.1054 16.7348 16 17 16H21C21.2652 16 21.5196 16.1054 21.7071 16.2929C21.8946 16.4804 22 16.7348 22 17V24C22 24.2652 21.8946 24.5196 21.7071 24.7071C21.5196 24.8946 21.2652 25 21 25H17C16.7348 25 16.4804 24.8946 16.2929 24.7071C16.1054 24.5196 16 24.2652 16 24V17ZM26 17C26 16.7348 26.1054 16.4804 26.2929 16.2929C26.4804 16.1054 26.7348 16 27 16H31C31.2652 16 31.5196 16.1054 31.7071 16.2929C31.8946 16.4804 32 16.7348 32 17V20C32 20.2652 31.8946 20.5196 31.7071 20.7071C31.5196 20.8946 31.2652 21 31 21H27C26.7348 21 26.4804 20.8946 26.2929 20.7071C26.1054 20.5196 26 20.2652 26 20V17ZM16 28C16 27.7348 16.1054 27.4804 16.2929 27.2929C16.4804 27.1054 16.7348 27 17 27H21C21.2652 27 21.5196 27.1054 21.7071 27.2929C21.8946 27.4804 22 27.7348 22 28V31C22 31.2652 21.8946 31.5196 21.7071 31.7071C21.5196 31.8946 21.2652 32 21 32H17C16.7348 32 16.4804 31.8946 16.2929 31.7071C16.1054 31.5196 16 31.2652 16 31V28ZM26 25C26 24.7348 26.1054 24.4804 26.2929 24.2929C26.4804 24.1054 26.7348 24 27 24H31C31.2652 24 31.5196 24.1054 31.7071 24.2929C31.8946 24.4804 32 24.7348 32 25V32C32 32.2652 31.8946 32.5196 31.7071 32.7071C31.5196 32.8946 31.2652 33 31 33H27C26.7348 33 26.4804 32.8946 26.2929 32.7071C26.1054 32.5196 26 32.2652 26 32V25Z" stroke="#00A63E" stroke-width="2" stroke-linecap="round" stroke-linejoin="round"/>
</svg>
